<?xml version="1.0" encoding="utf-8"?>
<!-- Generator: Adobe Illustrator 23.0.3, SVG Export Plug-In . SVG Version: 6.00 Build 0)  -->
<svg version="1.1" id="Layer_1" xmlns="http://www.w3.org/2000/svg" xmlns:xlink="http://www.w3.org/1999/xlink" x="0px" y="0px"
	 viewBox="0 0 134.5 47.1" style="enable-background:new 0 0 134.5 47.1;" xml:space="preserve">
<style type="text/css">
	.st0{fill:#3C3C3C;}
</style>
<g>
	<g>
		<path class="st0" d="M45.8,47.1l0-0.5h0c-0.2,0.3-0.6,0.5-1.1,0.5c-0.9,0-1.5-0.6-1.5-1.5s0.6-1.5,1.5-1.5c0.5,0,0.9,0.2,1.1,0.5
			h0l0-0.5h0.5v3H45.8z M45.8,45.6c0-0.6-0.4-1.1-1-1.1c-0.6,0-1,0.4-1,1.1c0,0.6,0.4,1.1,1,1.1C45.4,46.7,45.8,46.2,45.8,45.6z"/>
		<path class="st0" d="M52.3,44.2v0.5h0c-0.1-0.1-0.3-0.1-0.5-0.1c-0.6,0-0.8,0.4-0.8,1.2v1.3h-0.5v-3h0.5l0,0.5h0
			c0.2-0.4,0.5-0.5,0.9-0.5C52,44.1,52.2,44.1,52.3,44.2z"/>
		<path class="st0" d="M58.4,44.4v0.6h0c-0.2-0.3-0.5-0.4-0.9-0.4c-0.7,0-1.1,0.4-1.1,1.1c0,0.6,0.4,1.1,1.1,1.1
			c0.4,0,0.7-0.1,0.9-0.4h0v0.6c-0.2,0.2-0.5,0.3-1,0.3c-1,0-1.6-0.6-1.6-1.5c0-0.9,0.6-1.5,1.6-1.5C57.8,44.1,58.1,44.2,58.4,44.4z
			"/>
		<path class="st0" d="M65.1,45.4v1.7h-0.5v-1.7c0-0.6-0.3-0.9-0.8-0.9c-0.5,0-0.9,0.4-0.9,1v1.5h-0.5v-4.4h0.5v1.8h0
			c0.2-0.3,0.6-0.4,1-0.4C64.6,44.1,65.1,44.6,65.1,45.4z"/>
		<path class="st0" d="M69.8,43.2c0,0.2-0.1,0.4-0.4,0.4c-0.2,0-0.4-0.1-0.4-0.4s0.1-0.4,0.4-0.4C69.6,42.9,69.8,43,69.8,43.2z
			 M69.1,44.1h0.5v3h-0.5V44.1z"/>
		<path class="st0" d="M75.5,47c-0.1,0.1-0.3,0.1-0.5,0.1c-0.6,0-1-0.4-1-1v-1.5h-0.5v-0.5H74l0.1-0.8h0.4v0.8h1v0.5h-1v1.5
			c0,0.4,0.2,0.6,0.5,0.6c0.2,0,0.3,0,0.4-0.2h0V47z"/>
		<path class="st0" d="M79.7,45.8c0.1,0.5,0.5,0.9,1.2,0.9c0.4,0,0.8-0.1,1.1-0.4h0v0.5c-0.3,0.2-0.7,0.3-1.1,0.3
			c-1,0-1.7-0.6-1.7-1.5c0-0.9,0.6-1.5,1.5-1.5c0.9,0,1.5,0.6,1.5,1.4v0.3H79.7z M79.7,45.3h2c-0.1-0.5-0.5-0.8-1-0.8
			C80.2,44.5,79.8,44.9,79.7,45.3z"/>
		<path class="st0" d="M88.5,44.4v0.6h0c-0.2-0.3-0.5-0.4-0.9-0.4c-0.7,0-1.1,0.4-1.1,1.1c0,0.6,0.4,1.1,1.1,1.1
			c0.4,0,0.7-0.1,0.9-0.4h0v0.6c-0.2,0.2-0.5,0.3-1,0.3c-1,0-1.6-0.6-1.6-1.5c0-0.9,0.6-1.5,1.6-1.5C88,44.1,88.3,44.2,88.5,44.4z"
			/>
		<path class="st0" d="M94.2,47c-0.1,0.1-0.3,0.1-0.5,0.1c-0.6,0-1-0.4-1-1v-1.5h-0.5v-0.5h0.6l0.1-0.8h0.4v0.8h1v0.5h-1v1.5
			c0,0.4,0.2,0.6,0.5,0.6c0.2,0,0.3,0,0.4-0.2h0V47z"/>
		<path class="st0" d="M100.4,47.1l0-0.5h0c-0.2,0.3-0.6,0.5-1.1,0.5c-0.8,0-1.2-0.5-1.2-1.3v-1.7h0.5v1.7c0,0.6,0.3,0.9,0.8,0.9
			c0.5,0,0.9-0.4,0.9-1v-1.5h0.5v3H100.4z"/>
		<path class="st0" d="M106.8,44.2v0.5h0c-0.1-0.1-0.3-0.1-0.5-0.1c-0.6,0-0.8,0.4-0.8,1.2v1.3h-0.5v-3h0.5l0,0.5h0
			c0.2-0.4,0.5-0.5,0.9-0.5C106.5,44.1,106.7,44.1,106.8,44.2z"/>
		<path class="st0" d="M110.8,45.8c0.1,0.5,0.5,0.9,1.2,0.9c0.4,0,0.8-0.1,1.1-0.4h0v0.5c-0.3,0.2-0.7,0.3-1.1,0.3
			c-1,0-1.7-0.6-1.7-1.5c0-0.9,0.6-1.5,1.5-1.5c0.9,0,1.5,0.6,1.5,1.4v0.3H110.8z M110.8,45.3h2c-0.1-0.5-0.5-0.8-1-0.8
			C111.3,44.5,110.9,44.9,110.8,45.3z"/>
	</g>
	
		<rect x="24.3" y="15.5" transform="matrix(6.123234e-17 -1 1 6.123234e-17 -15.5016 64.2011)" class="st0" width="0.2" height="48.7"/>
	<g>
		<path class="st0" d="M55.4,37.6c-0.1,0.2-0.2,0.3-0.3,0.4c-0.1,0.1-0.2,0.2-0.4,0.3c0,0.1-0.1,0.1-0.2,0.2c-0.6,0.5-1.3,0.8-2,1
			c-0.8,0.2-1.8,0.4-3,0.4h-0.2h-2.7h-1h-2.4h-2.7v-0.2c0.5,0,0.9,0,1.3-0.1c0.4-0.1,0.6-0.2,0.8-0.3c0.2-0.2,0.4-0.4,0.5-0.7
			c0.1-0.3,0.1-0.7,0.1-1.2v-13c0-0.1,0-0.2,0-0.3c0-0.4,0-0.8-0.1-1c-0.1-0.3-0.2-0.5-0.3-0.7c-0.2-0.2-0.4-0.3-0.6-0.4
			c-0.3-0.1-0.6-0.1-0.9-0.2h-0.7v-0.2h7h0.7h0.2h0.4H49c0.5,0,1,0,1.4,0.1c0.4,0.1,0.8,0.2,1.2,0.3c0.7,0.2,1.3,0.5,1.8,1
			c0.9,0.8,1.4,1.9,1.4,3.2c0,1.3-0.5,2.4-1.4,3.2c-0.3,0.2-0.5,0.4-0.8,0.6c-0.3,0.2-0.6,0.3-1,0.4c-0.2,0.1-0.3,0.1-0.5,0.1
			c-0.2,0-0.4,0.1-0.5,0.1c0.3,0,0.7,0,1,0.1c0.3,0.1,0.6,0.1,0.9,0.2c0.8,0.2,1.5,0.6,2,1c1,0.8,1.6,1.9,1.6,3.2
			C56.1,36.2,55.8,36.9,55.4,37.6z M45.6,30.8h0.9h2.3h0.1c0.8,0,1.4-0.2,1.9-0.5c0.2-0.1,0.3-0.3,0.5-0.5c0.2-0.2,0.3-0.4,0.5-0.7
			c0.4-0.7,0.6-1.6,0.6-2.7c0-1.3-0.3-2.4-0.8-3.1C50.9,22.4,50,22,48.9,22h-0.4h-0.1h-0.9c-0.7,0.1-1.1,0.2-1.4,0.6
			c-0.3,0.3-0.4,0.9-0.4,1.6v0.3V30.8z M52.3,38.5c0.6-0.8,0.9-1.8,0.9-3.1c0-1.3-0.3-2.3-0.9-3.1c-0.7-0.9-1.7-1.3-3-1.3H49h-0.2
			h-0.1h-2.3h-0.9v6.2v0.4c0,0.4,0,0.7,0.1,1c0.1,0.3,0.2,0.5,0.3,0.7c0.2,0.2,0.4,0.3,0.6,0.4c0.3,0.1,0.6,0.1,1,0.1h0.7h1
			C50.7,39.8,51.6,39.3,52.3,38.5z"/>
		<path class="st0" d="M69,39.6c0.5-0.2,0.9-0.3,1.3-0.6s0.7-0.5,1-0.8c0.3-0.3,0.5-0.6,0.7-1c0.5-0.8,0.8-1.6,1-2.6h0.2L72.6,40
			h-0.2h-6.9h-7.9v-0.2c0.5,0,0.9,0,1.3-0.1c0.4-0.1,0.6-0.2,0.8-0.3c0.2-0.2,0.4-0.4,0.5-0.7c0.1-0.3,0.1-0.7,0.1-1.2v-13
			c0,0,0-0.1,0-0.1c0,0,0-0.1,0-0.1c0-0.8-0.1-1.4-0.4-1.7c-0.3-0.3-0.8-0.5-1.6-0.5h-0.7v-0.1h5.2h9H72v4.7h-0.2v0
			c-0.1-0.5-0.3-1-0.4-1.6c-0.2-0.5-0.4-1-0.7-1.5c-0.3-0.4-0.8-0.8-1.4-1.1C68.7,22.2,68,22,67,22h-0.7h-3.6v2.5v6.3H66
			c0.6,0,1.2-0.2,1.5-0.4c0.4-0.3,0.6-0.6,0.8-0.9c0.2-0.3,0.3-0.7,0.4-1c0-0.3,0.1-0.5,0.1-0.6v-0.1H69v3.1V31v3.1h-0.2V34
			c0-0.1,0-0.3-0.1-0.7c0-0.3-0.2-0.7-0.4-1c-0.2-0.4-0.5-0.7-0.9-0.9c-0.4-0.3-0.9-0.4-1.6-0.4h-0.2h-3v6.2c0,0.1,0,0.2,0,0.4
			c0,0.4,0,0.8,0.1,1c0.1,0.3,0.2,0.5,0.3,0.7c0.2,0.2,0.4,0.3,0.6,0.4c0.3,0.1,0.6,0.1,0.9,0.1h2.5C68,39.8,68.5,39.7,69,39.6z"/>
		<path class="st0" d="M103.3,40h-6.7h-7.9v-0.2c0.5,0,0.9,0,1.3-0.1c0.3-0.1,0.6-0.2,0.8-0.3c0.2-0.2,0.4-0.4,0.5-0.7
			c0.1-0.3,0.1-0.7,0.1-1.2v-13v-0.3c0-0.8-0.2-1.4-0.5-1.7c-0.3-0.3-0.8-0.5-1.6-0.5h-0.7v-0.1h7.8h0.1V22h0h0v0h-0.9
			c-0.3,0-0.6,0.1-0.8,0.2c-0.2,0.1-0.4,0.2-0.6,0.4c-0.1,0.2-0.2,0.4-0.3,0.7c-0.1,0.3-0.1,0.6-0.1,1v0.3v12.7v0.4
			c0,0.4,0,0.8,0.1,1c0.1,0.3,0.2,0.5,0.3,0.7c0.2,0.2,0.4,0.3,0.6,0.4c0.3,0.1,0.6,0.1,1,0.1h2.3c0.6,0,1.2-0.1,1.7-0.2
			c0.5-0.2,0.9-0.3,1.3-0.6c0.4-0.2,0.7-0.5,1-0.8c0.3-0.3,0.5-0.6,0.7-1c0.5-0.8,0.8-1.6,1-2.6h0.2l-0.7,5.4H103.3z"/>
		<path class="st0" d="M106.8,39.7c0.4-0.1,0.6-0.2,0.8-0.3c0.2-0.2,0.4-0.4,0.5-0.7c0.1-0.3,0.1-0.7,0.1-1.2v-13v-0.3
			c0-0.8-0.1-1.4-0.4-1.7c-0.3-0.3-0.8-0.5-1.6-0.5h-0.7v-0.1h7.8h0.1V22h0h0v0h-0.9c-0.7,0.1-1.1,0.3-1.4,0.6
			c-0.3,0.3-0.4,0.9-0.4,1.6v0.3v12.7v0.4c0,0.4,0,0.8,0.1,1c0.1,0.3,0.2,0.5,0.3,0.7c0.2,0.2,0.4,0.3,0.6,0.4
			c0.3,0.1,0.6,0.1,1,0.1h0.7V40h-7.9v-0.2C106,39.8,106.4,39.8,106.8,39.7z"/>
		<path class="st0" d="M126.6,21.9h7.9V22h-0.3c-0.2,0-0.6,0.1-0.9,0.1c-0.4,0.1-0.8,0.2-1.2,0.4c-0.4,0.2-0.7,0.5-1,0.8
			c-0.3,0.4-0.4,0.8-0.4,1.4v9.8c0,0.8-0.2,1.5-0.5,2.2c-0.3,0.7-0.8,1.3-1.4,1.8c-0.6,0.5-1.3,0.9-2.1,1.1
			c-0.8,0.3-1.6,0.4-2.6,0.4H124h0h0c-0.9,0-1.7-0.1-2.5-0.4c-0.8-0.3-1.5-0.6-2.1-1.1c-0.6-0.5-1.1-1.1-1.5-1.8
			c-0.3-0.7-0.5-1.5-0.5-2.4V23.6c0-0.6-0.2-1-0.5-1.2c-0.3-0.2-0.8-0.4-1.5-0.4h-0.7v-0.2h7.8h0h0.1v0.1l0,0h0v0h-0.9
			c-0.5,0-0.9,0.2-1.2,0.4c-0.3,0.2-0.4,0.6-0.5,1.1v10.7c0,0.9,0.1,1.7,0.4,2.5c0.3,0.8,0.7,1.4,1.2,1.9c0.5,0.5,1.2,0.9,2,1.1
			c0.8,0.2,1.6,0.2,2.6-0.1c0.9-0.2,1.7-0.6,2.5-1.2c0.6-0.4,1-1,1.4-1.6c0.3-0.6,0.5-1.4,0.5-2.1v-9.9c0-0.6-0.2-1.1-0.5-1.4
			c-0.3-0.3-0.6-0.6-1-0.8c-0.4-0.2-0.8-0.3-1.2-0.4c-0.4-0.1-0.7-0.1-0.9-0.1h-0.3V21.9z"/>
		<g>
			<path class="st0" d="M77.9,39c-0.3-0.2-0.6-0.4-0.9-0.6c-0.2-0.2-0.5-0.5-0.7-0.8c-0.2-0.3-0.4-0.7-0.5-1.1
				c-0.1-0.4-0.2-0.8-0.3-1.2c-0.1-0.4-0.1-0.7-0.1-1.1h0h-0.2V40h0.2v0c0,0,0.1-0.1,0.1-0.3c0.1-0.2,0.2-0.3,0.4-0.4
				c0.2-0.1,0.5-0.2,0.9-0.2c0.3,0,0.6,0.1,1,0.2C77.9,39.1,77.9,39.1,77.9,39z"/>
			<path class="st0" d="M86.9,33.8c-0.2-0.6-0.5-1.3-1-1.9c-0.5-0.6-1.2-1.1-2-1.5l-2.6-1.3c-1.3-0.7-2.2-1.4-2.8-2.2
				c-0.6-0.7-0.9-1.4-1-2.1c-0.1-0.6,0.1-1.2,0.5-1.7s0.9-0.9,1.6-1.1c0.2-0.1,0.5-0.1,0.8-0.2c0.3,0,0.5-0.1,0.8-0.1
				c0.6,0,1.2,0.1,1.8,0.3c0.6,0.2,1.1,0.5,1.5,0.9c0.2,0.2,0.4,0.4,0.6,0.7c0.2,0.3,0.4,0.6,0.6,0.9c0.2,0.3,0.3,0.7,0.4,1
				c0.1,0.3,0.1,0.7,0.1,1h0.2v-0.1v-4.8h-0.2c-0.2,0.3-0.4,0.5-0.6,0.6c-0.2,0.1-0.5,0.2-0.8,0.1c-0.3,0-0.5-0.1-0.8-0.2
				c-0.3-0.1-0.5-0.2-0.8-0.3c-0.6-0.3-1.3-0.4-2-0.4c-0.3,0-0.6,0-0.9,0.1c-0.3,0-0.6,0.1-0.9,0.2c-0.6,0.2-1.2,0.6-1.7,1
				c-0.5,0.4-0.9,0.9-1.2,1.4c-0.3,0.5-0.5,1.1-0.5,1.7c-0.1,0.6,0,1.2,0.3,1.8c0.2,0.6,0.6,1.2,1.2,1.8c0.6,0.6,1.3,1.1,2.3,1.6
				l2.8,1.5c0.9,0.5,1.5,1,1.9,1.6c0.4,0.6,0.6,1.3,0.5,1.9c0,0.6-0.2,1.2-0.6,1.8c-0.4,0.6-0.9,1-1.5,1.3c0,0,0,0,0,0
				c0,0.1,0,0.1,0,0.2c0.5-0.1,1-0.3,1.5-0.5c0.8-0.4,1.4-0.9,1.9-1.4c0.5-0.5,0.8-1.1,0.9-1.8C87.1,35.1,87.1,34.5,86.9,33.8z"/>
		</g>
	</g>
	<path class="st0" d="M41.1,0v0.2h-0.3c-0.2,0-0.6,0-1,0.1c-0.4,0.1-0.8,0.2-1.2,0.4c-0.4,0.2-0.7,0.5-1,0.8
		c-0.3,0.4-0.4,0.8-0.4,1.4v15.2H37L23.7,1.5v42.7c0,0.6,0.1,1.1,0.4,1.5c0.3,0.4,0.6,0.6,1,0.8c0.4,0.2,0.8,0.3,1.2,0.4
		c0.4,0.1,0.7,0.1,1,0.1h0.3v0.2h-3.9h-0.2h-3.9v-0.2H20c0.2,0,0.6,0,1-0.1c0.4-0.1,0.8-0.2,1.2-0.4c0.4-0.2,0.7-0.5,1-0.8
		c0.3-0.4,0.4-0.9,0.4-1.5V2.3c0-0.4,0-0.7,0-0.9c0-0.3-0.1-0.5-0.2-0.7c-0.1-0.2-0.3-0.3-0.6-0.4c-0.3-0.1-0.7-0.1-1.2-0.1h-0.7V0
		h2.7h0.2h1.9L37,14.1V2.9c0-0.6-0.1-1.1-0.4-1.4c-0.3-0.4-0.6-0.6-1-0.8c-0.4-0.2-0.8-0.3-1.2-0.4c-0.4-0.1-0.7-0.1-1-0.1h-0.3V0
		H37h0.2H41.1z"/>
	<path class="st0" d="M58.4,15.4c-0.8,0.9-1.7,1.5-2.7,2c-1.1,0.5-2.3,0.7-3.5,0.7h-1.8h-2.7h-2.4h-2.7v-0.2c0.5,0,0.9,0,1.3-0.1
		c0.3-0.1,0.6-0.2,0.8-0.3c0.2-0.2,0.4-0.4,0.5-0.7c0.1-0.3,0.1-0.7,0.1-1.2v-13V2.4c0-0.8-0.2-1.4-0.5-1.7
		c-0.3-0.3-0.8-0.5-1.6-0.5h-0.7V0h7.8h0c0.4,0,0.7,0,0.9,0c0.2,0,0.4,0,0.5,0c0.1,0,0.2,0,0.3,0c0.1,0,0.1,0,0.2,0
		c1.3,0,2.4,0.2,3.5,0.7c1,0.5,1.9,1.1,2.7,1.9c0.8,0.8,1.3,1.8,1.7,2.9c0.4,1.1,0.6,2.3,0.6,3.5c0,1.2-0.2,2.4-0.6,3.5
		C59.7,13.6,59.1,14.6,58.4,15.4z M54.4,17.2c0.4-0.2,0.7-0.5,1.1-0.8c0.3-0.3,0.7-0.7,0.9-1.1c0.6-0.8,1-1.8,1.3-2.8
		c0.3-1.1,0.5-2.2,0.5-3.4c0-1.2-0.2-2.4-0.5-3.5c-0.3-1.1-0.8-2-1.3-2.8c-0.3-0.4-0.6-0.8-0.9-1.1c-0.3-0.3-0.7-0.6-1.1-0.8
		c-0.7-0.4-1.5-0.7-2.4-0.7h-1.6h-0.9c-0.3,0-0.6,0.1-0.8,0.2c-0.2,0.1-0.4,0.2-0.6,0.4c-0.1,0.2-0.2,0.4-0.3,0.7
		c-0.1,0.3-0.1,0.6-0.1,1v0.3v12.7c0,0.1,0,0.1,0,0.2c0,0.1,0,0.1,0,0.2c0,0.4,0,0.8,0.1,1c0.1,0.3,0.2,0.5,0.3,0.7
		c0.2,0.2,0.4,0.3,0.6,0.4c0.3,0.1,0.6,0.1,1,0.1h0.6h1.4C52.7,17.9,53.5,17.7,54.4,17.2z"/>
	<path class="st0" d="M61.9,18.1v-0.2h0c0.5,0,0.9,0,1.3-0.1c0.4-0.1,0.6-0.2,0.8-0.3c0.2-0.2,0.4-0.4,0.4-0.7
		c0.1-0.3,0.1-0.7,0.1-1.2v-13V2.4c0-0.8-0.1-1.4-0.4-1.7c-0.3-0.3-0.8-0.5-1.6-0.5h-0.7V0h7h0.7h0h0.2h0.5h0.2c1,0,1.9,0.1,2.6,0.3
		c0.7,0.2,1.3,0.6,1.8,1c0.5,0.4,0.8,0.9,1,1.4c0.2,0.6,0.4,1.2,0.4,1.8c0,1.4-0.5,2.4-1.4,3.2c-0.5,0.4-1.1,0.7-1.8,1
		C72.8,8.9,72.5,9,72.1,9c-0.4,0-0.8,0.1-1.2,0.1c0.3,0.1,0.6,0.2,1,0.5c0.4,0.2,0.8,0.7,1.2,1.2l4.2,5.9c0.2,0.3,0.5,0.5,0.8,0.7
		c0.3,0.2,0.6,0.3,0.9,0.4c0.3,0.1,0.5,0.1,0.7,0.1c0.2,0,0.3,0,0.4,0h0v0.2h-1.8h-2.6h-0.1l-5.5-7.6c-0.2-0.3-0.4-0.5-0.6-0.7
		c-0.2-0.2-0.4-0.3-0.5-0.4c-0.2-0.1-0.3-0.2-0.5-0.2c-0.2,0-0.3,0-0.5,0h-0.8v6.2v0.4c0,0.4,0,0.8,0.1,1c0.1,0.3,0.2,0.5,0.3,0.7
		c0.2,0.2,0.4,0.3,0.6,0.4c0.3,0.1,0.6,0.1,0.9,0.1h0.7v0v0.1h-2.7h-2.4H61.9z M67.1,9h0.8h2.4c0.7,0,1.4-0.2,1.9-0.6
		c0.2-0.1,0.3-0.3,0.5-0.5c0.2-0.2,0.3-0.4,0.5-0.7c0.2-0.4,0.3-0.8,0.4-1.2c0.1-0.5,0.2-1,0.2-1.5c0-1.3-0.3-2.3-0.8-3.1
		c-0.6-0.9-1.5-1.3-2.6-1.3h-0.5h-0.1h-0.9c-0.3,0-0.6,0.1-0.8,0.2s-0.4,0.2-0.6,0.4c-0.1,0.2-0.2,0.4-0.3,0.7
		c-0.1,0.3-0.1,0.6-0.1,1v0.3V9z"/>
	<path class="st0" d="M92.9,17.7c0.5-0.2,0.9-0.3,1.3-0.6c0.4-0.2,0.7-0.5,1-0.8c0.3-0.3,0.5-0.6,0.7-1c0.5-0.8,0.8-1.6,1-2.6h0.2
		l-0.7,5.4h-0.2h-6.9h-7.9v-0.2c0.5,0,0.9,0,1.3-0.1c0.4-0.1,0.6-0.2,0.8-0.3c0.2-0.2,0.4-0.4,0.5-0.7c0.1-0.3,0.1-0.7,0.1-1.2v-13
		c0,0,0-0.1,0-0.1c0,0,0-0.1,0-0.1c0-0.8-0.1-1.4-0.4-1.7c-0.3-0.3-0.8-0.5-1.6-0.5h-0.7V0h5.2h9h0.2v4.7h-0.2v0
		c-0.1-0.5-0.3-1-0.4-1.6c-0.2-0.5-0.4-1-0.7-1.5c-0.3-0.4-0.8-0.8-1.4-1.1c-0.6-0.3-1.3-0.4-2.3-0.4h-0.7h-3.6v2.5V9h3.2
		c0.6,0,1.2-0.2,1.5-0.4c0.4-0.3,0.6-0.6,0.8-0.9c0.2-0.3,0.3-0.7,0.4-1c0-0.3,0.1-0.5,0.1-0.6V5.9h0.2V9v0.1v3.1h-0.2v-0.1
		c0-0.1,0-0.3-0.1-0.7c0-0.3-0.2-0.7-0.4-1c-0.2-0.4-0.5-0.7-0.9-0.9c-0.4-0.3-0.9-0.4-1.6-0.4h-0.2h-3v6.2c0,0.1,0,0.2,0,0.4
		c0,0.4,0,0.8,0.1,1c0.1,0.3,0.2,0.5,0.3,0.7c0.2,0.2,0.4,0.3,0.6,0.4c0.3,0.1,0.6,0.1,0.9,0.1h2.5C91.8,17.9,92.4,17.9,92.9,17.7z"
		/>
	<path class="st0" d="M110.2,17.7c0.5-0.2,0.9-0.3,1.3-0.6s0.7-0.5,1-0.8c0.3-0.3,0.5-0.6,0.7-1c0.5-0.8,0.8-1.6,1-2.6h0.2l-0.7,5.4
		h-0.2h-6.9h-7.9v-0.2c0.5,0,0.9,0,1.3-0.1c0.4-0.1,0.6-0.2,0.8-0.3c0.2-0.2,0.4-0.4,0.5-0.7c0.1-0.3,0.1-0.7,0.1-1.2v-13
		c0,0,0-0.1,0-0.1c0,0,0-0.1,0-0.1c0-0.8-0.1-1.4-0.4-1.7c-0.3-0.3-0.8-0.5-1.6-0.5h-0.7V0h5.2h9h0.2v4.7H113v0
		c-0.1-0.5-0.3-1-0.4-1.6c-0.2-0.5-0.4-1-0.7-1.5c-0.3-0.4-0.8-0.8-1.4-1.1c-0.6-0.3-1.3-0.4-2.3-0.4h-0.7H104v2.5V9h3.2
		c0.6,0,1.2-0.2,1.5-0.4c0.4-0.3,0.6-0.6,0.8-0.9c0.2-0.3,0.3-0.7,0.4-1c0-0.3,0.1-0.5,0.1-0.6V5.9h0.2V9v0.1v3.1H110v-0.1
		c0-0.1,0-0.3-0.1-0.7c0-0.3-0.2-0.7-0.4-1s-0.5-0.7-0.9-0.9c-0.4-0.3-0.9-0.4-1.6-0.4H107h-3v6.2c0,0.1,0,0.2,0,0.4
		c0,0.4,0,0.8,0.1,1c0.1,0.3,0.2,0.5,0.3,0.7c0.2,0.2,0.4,0.3,0.6,0.4c0.3,0.1,0.6,0.1,0.9,0.1h2.5
		C109.2,17.9,109.7,17.9,110.2,17.7z"/>
	<path class="st0" d="M17.7,17.8c-0.2,0-0.5-0.1-0.7-0.3c-0.2-0.2-0.5-0.4-0.7-0.8c-0.2-0.4-0.5-0.9-0.7-1.5L9.6,0H9.4L3.3,15.2
		c-0.3,0.7-0.6,1.2-1,1.6c-0.4,0.4-0.7,0.6-1.1,0.8c-0.3,0.2-0.6,0.3-0.9,0.3c-0.2,0-0.4,0-0.4,0v0.2h6v-0.2c0,0-0.1,0-0.3,0
		c-0.2,0-0.4,0-0.6-0.1c-0.2-0.1-0.5-0.1-0.8-0.2c-0.3-0.1-0.5-0.3-0.7-0.5c-0.2-0.2-0.3-0.5-0.4-0.8c-0.1-0.3,0-0.7,0.2-1.1L5.2,11
		l0,0l0,0l0-0.1h0l0.1-0.3l0,0l3-7.6l3,7.6l0,0l0.1,0.3h0l0,0.1l0,0l0,0l1.6,4.1c0.3,0.7,0.4,1.2,0.5,1.6c0,0.4-0.1,0.6-0.2,0.8
		c-0.2,0.2-0.5,0.3-0.9,0.3c-0.4,0-0.8,0.1-1.4,0.1v0.2h7.4v-0.2C18.2,17.9,18,17.8,17.7,17.8z"/>
	<path class="st0" d="M134.1,17.9c-0.2,0-0.5-0.1-0.9-0.3c-0.3-0.2-0.7-0.4-1.1-0.8c-0.4-0.4-0.7-0.9-1-1.6L125.1,0h-0.2l-6.1,15.1
		c-0.3,0.7-0.5,1.2-0.7,1.5c-0.2,0.4-0.5,0.6-0.7,0.8c-0.2,0.2-0.5,0.3-0.7,0.3c-0.2,0-0.5,0.1-0.8,0.1v0.2h7.4v-0.2
		c-0.5,0-1-0.1-1.4-0.1c-0.4,0-0.7-0.1-0.9-0.3c-0.2-0.2-0.3-0.4-0.2-0.8c0-0.4,0.2-0.9,0.5-1.6l1.6-3.9l0,0l0,0l0.1-0.3h0l0.2-0.5
		h0l3-7.4l2.9,7.3l0,0l0.2,0.6h0l0.1,0.2l0,0l0,0l1.6,4.1c0.2,0.5,0.2,0.8,0.2,1.1c-0.1,0.3-0.2,0.6-0.4,0.8
		c-0.2,0.2-0.4,0.4-0.7,0.5c-0.3,0.1-0.5,0.2-0.8,0.2c-0.2,0.1-0.5,0.1-0.6,0.1c-0.2,0-0.3,0-0.3,0v0.2h6v-0.2
		C134.5,17.9,134.4,17.9,134.1,17.9z"/>
</g>
</svg>
